<?xml version="1.0" encoding="utf-8"?>
<!-- Generator: Adobe Illustrator 23.0.1, SVG Export Plug-In . SVG Version: 6.00 Build 0)  -->
<svg version="1.1" id="Layer_1" xmlns="http://www.w3.org/2000/svg" xmlns:xlink="http://www.w3.org/1999/xlink" x="0px" y="0px"
	 viewBox="0 0 273 273" style="enable-background:new 0 0 273 273;" xml:space="preserve">
<style type="text/css">
	.st0{fill:#C8C8C8;}
</style>
<title>single neutral circle</title>
<g>
	<g>
		<path class="st0" d="M136.5,273C61.2,273,0,211.8,0,136.5C0,61.2,61.2,0,136.5,0C211.8,0,273,61.2,273,136.5
			C273,211.8,211.8,273,136.5,273z M136.5,3C62.9,3,3,62.9,3,136.5S62.9,270,136.5,270S270,210.1,270,136.5S210.1,3,136.5,3z"/>
	</g>
	<g>
		<path class="st0" d="M230.9,234.5c-0.3,0-0.5-0.1-0.8-0.2c-20-11.6-41.3-20.9-63.2-27.5c-4-1.5-7-5.6-8.5-11.6
			c-2.3-9.2-0.6-19.8,3.9-24.8c9.3-10.1,18.4-22.7,18.4-54.9c0-0.1,0-0.1,0-0.2c0.2-1.7,0.2-3.4,0.2-5.2
			c-0.7-23.8-20.6-42.7-44.5-42c-1.9,0-3.6,0-5.3,0.2c-11.5,1.1-21.9,6.6-29.3,15.5c-7.4,8.9-10.8,20.1-9.8,31.6c0,0,0,0.1,0,0.1
			c0,32,9.1,44.7,18.4,54.9c5.1,5.6,5.8,16.9,3.9,24.7c-1.5,6.1-4.5,10.2-8.4,11.6c-22.1,6.7-43.3,15.9-63.3,27.5
			c-0.7,0.4-1.6,0.2-2-0.5c-0.4-0.7-0.2-1.6,0.5-2.1c20.1-11.7,41.6-21,63.8-27.7c2.9-1.1,5.2-4.4,6.4-9.5c2-8.1,0.6-17.8-3.2-22
			c-9.7-10.7-19.2-23.8-19.2-56.8c-1.1-12.3,2.6-24.3,10.5-33.7c7.9-9.5,19-15.4,31.3-16.5c1.9-0.2,3.7-0.2,5.5-0.2
			c25.4-0.7,46.8,19.4,47.5,45c0,1.8,0,3.7-0.2,5.5c0,33.2-9.5,46.3-19.2,56.8c-3.8,4.1-5.2,14-3.2,22c1.2,5,3.6,8.4,6.5,9.5
			c22,6.6,43.5,16,63.7,27.7c0.7,0.4,1,1.3,0.5,2.1C231.9,234.2,231.4,234.5,230.9,234.5z"/>
	</g>
</g>
</svg>
