<?xml version="1.0" encoding="utf-8"?>
<!-- Generator: Adobe Illustrator 23.0.1, SVG Export Plug-In . SVG Version: 6.00 Build 0)  -->
<svg version="1.1" id="Layer_1" xmlns="http://www.w3.org/2000/svg" xmlns:xlink="http://www.w3.org/1999/xlink" x="0px" y="0px"
	 viewBox="0 0 298.7 273" style="enable-background:new 0 0 298.7 273;" xml:space="preserve">
<style type="text/css">
	.st0{fill:#C8C8C8;}
</style>
<title>messages bubble square typing 1</title>
<g>
	<g>
		<path class="st0" d="M91.5,273c-0.2,0-0.4,0-0.6-0.1c-0.6-0.2-0.9-0.8-0.9-1.4v-49.9H14.4c-7.9,0-14.4-6.5-14.4-14.4V14.4
			C0,6.5,6.5,0,14.4,0h270c7.9,0,14.4,6.5,14.4,14.4v192.8c0,0.2,0,0.4-0.1,0.6c-0.3,7.7-6.6,13.8-14.4,13.8H143.5l-51,51
			C92.3,272.8,91.9,273,91.5,273z M14.4,3C8.1,3,3,8.1,3,14.4v192.8c0,6.3,5.1,11.4,11.4,11.4h77.1c0.8,0,1.5,0.7,1.5,1.5v47.8
			l48.8-48.8c0.3-0.3,0.7-0.4,1.1-0.4h141.4c6.3,0,11.4-5.1,11.4-11.4c0-0.2,0-0.4,0.1-0.5V14.4c0-6.3-5.1-11.4-11.4-11.4H14.4z"/>
	</g>
	<g>
		<path class="st0" d="M72.2,118.7c-11.5,0-20.8-9.3-20.8-20.8s9.3-20.8,20.8-20.8S93,86.4,93,97.9S83.7,118.7,72.2,118.7z
			 M72.2,80.1c-9.8,0-17.8,8-17.8,17.8s8,17.8,17.8,17.8s17.8-8,17.8-17.8S82,80.1,72.2,80.1z"/>
	</g>
	<g>
		<path class="st0" d="M149.4,118.7c-11.5,0-20.8-9.3-20.8-20.8s9.3-20.8,20.8-20.8s20.8,9.3,20.8,20.8S160.9,118.7,149.4,118.7z
			 M149.4,80.1c-9.8,0-17.8,8-17.8,17.8s8,17.8,17.8,17.8s17.8-8,17.8-17.8S159.2,80.1,149.4,80.1z"/>
	</g>
	<g>
		<path class="st0" d="M226.5,118.7c-11.5,0-20.8-9.3-20.8-20.8s9.3-20.8,20.8-20.8s20.8,9.3,20.8,20.8S238,118.7,226.5,118.7z
			 M226.5,80.1c-9.8,0-17.8,8-17.8,17.8s8,17.8,17.8,17.8s17.8-8,17.8-17.8S236.3,80.1,226.5,80.1z"/>
	</g>
</g>
</svg>
