<?xml version="1.0" encoding="utf-8"?>
<!-- Generator: Adobe Illustrator 23.0.1, SVG Export Plug-In . SVG Version: 6.00 Build 0)  -->
<svg version="1.1" id="Layer_1" xmlns="http://www.w3.org/2000/svg" xmlns:xlink="http://www.w3.org/1999/xlink" x="0px" y="0px"
	 viewBox="0 0 273 273" style="enable-background:new 0 0 273 273;" xml:space="preserve">
<style type="text/css">
	.st0{fill:#C8C8C8;}
</style>
<title>single neutral search</title>
<g>
	<g id="New_Symbol_1">
		<g>
			<path class="st0" d="M118.9,126.3c-21.9,0-39.7-17.8-39.7-39.7S97,46.9,118.9,46.9c21.9,0,39.7,17.8,39.7,39.7
				S140.8,126.3,118.9,126.3z M118.9,49.9c-20.2,0-36.7,16.5-36.7,36.7s16.5,36.7,36.7,36.7c20.2,0,36.7-16.5,36.7-36.7
				S139.1,49.9,118.9,49.9z"/>
		</g>
		<g>
			<path class="st0" d="M178.2,185c-0.6,0-1.2-0.4-1.4-1c-11.5-31.6-46.6-47.9-78.2-36.4c-17,6.2-30.2,19.4-36.4,36.4
				c-0.3,0.8-1.1,1.2-1.9,0.9c-0.8-0.3-1.2-1.1-0.9-1.9c6.5-17.8,20.4-31.7,38.2-38.2c33.2-12,70,5.1,82,38.2
				c0.3,0.8-0.1,1.6-0.9,1.9C178.5,185,178.4,185,178.2,185z"/>
		</g>
	</g>
	<g>
		<path class="st0" d="M118.9,237.8C53.3,237.8,0,184.5,0,118.9C0,53.3,53.3,0,118.9,0c65.6,0,118.9,53.3,118.9,118.9
			C237.8,184.5,184.5,237.8,118.9,237.8z M118.9,3C55,3,3,55,3,118.9c0,63.9,52,115.9,115.9,115.9c63.9,0,115.9-52,115.9-115.9
			C234.8,55,182.8,3,118.9,3z"/>
	</g>
	<g>
		<path class="st0" d="M271.5,273c-0.4,0-0.8-0.1-1.1-0.4L200.8,203c-0.6-0.6-0.6-1.5,0-2.1s1.5-0.6,2.1,0l69.6,69.6
			c0.6,0.6,0.6,1.5,0,2.1C272.3,272.9,271.9,273,271.5,273z"/>
	</g>
</g>
</svg>
