<?xml version="1.0" encoding="utf-8"?>
<!-- Generator: Adobe Illustrator 23.0.1, SVG Export Plug-In . SVG Version: 6.00 Build 0)  -->
<svg version="1.1" id="Layer_1" xmlns="http://www.w3.org/2000/svg" xmlns:xlink="http://www.w3.org/1999/xlink" x="0px" y="0px"
	 viewBox="0 0 273 273" style="enable-background:new 0 0 273 273;" xml:space="preserve">
<style type="text/css">
	.st0{fill:#C8C8C8;}
</style>
<title>single neutral expand</title>
<g>
	<g>
		<path class="st0" d="M1.5,273c-0.4,0-0.8-0.1-1.1-0.4c-0.6-0.6-0.6-1.5,0-2.1L65,205.8c0.6-0.6,1.5-0.6,2.1,0s0.6,1.5,0,2.1
			L2.6,272.6C2.3,272.9,1.9,273,1.5,273z"/>
	</g>
	<g>
		<path class="st0" d="M1.5,273c-0.4,0-0.8-0.2-1.1-0.4c-0.3-0.3-0.4-0.7-0.4-1.1v-58.9c0-0.8,0.7-1.5,1.5-1.5s1.5,0.7,1.5,1.5V270
			l57.2-0.2c0,0,0,0,0,0c0.8,0,1.5,0.7,1.5,1.5c0,0.8-0.7,1.5-1.5,1.5L1.5,273C1.5,273,1.5,273,1.5,273z"/>
	</g>
	<g>
		<path class="st0" d="M136.6,102.8c-18.6,0-33.8-15.2-33.8-33.8s15.2-33.8,33.8-33.8c18.6,0,33.8,15.2,33.8,33.8
			S155.2,102.8,136.6,102.8z M136.6,38.2c-17,0-30.8,13.8-30.8,30.8s13.8,30.8,30.8,30.8c17,0,30.8-13.8,30.8-30.8
			S153.6,38.2,136.6,38.2z"/>
	</g>
	<g>
		<path class="st0" d="M154.2,249.5H119c-0.8,0-1.4-0.6-1.5-1.4l-4.8-57.3H95.5c-0.8,0-1.5-0.7-1.5-1.5v-35.2
			c0-23.5,19.1-42.6,42.6-42.6s42.6,19.1,42.6,42.6v35.2c0,0.8-0.7,1.5-1.5,1.5h-17.2l-4.8,57.3C155.6,248.9,155,249.5,154.2,249.5z
			 M120.4,246.5h32.4l4.8-57.3c0.1-0.8,0.7-1.4,1.5-1.4h17.1v-33.7c0-21.8-17.8-39.6-39.6-39.6S97,132.3,97,154.1v33.7h17.1
			c0.8,0,1.4,0.6,1.5,1.4L120.4,246.5z"/>
	</g>
	<g>
		<path class="st0" d="M66.1,67.6c-0.4,0-0.8-0.1-1.1-0.4L0.4,2.6C-0.1,2-0.1,1,0.4,0.4C1-0.1,2-0.1,2.6,0.4L67.2,65
			c0.6,0.6,0.6,1.5,0,2.1C66.9,67.5,66.5,67.6,66.1,67.6z"/>
	</g>
	<g>
		<path class="st0" d="M1.5,61.9c-0.8,0-1.5-0.7-1.5-1.5V1.5c0-0.4,0.2-0.8,0.4-1.1C0.7,0.2,1.1,0,1.5,0c0,0,0,0,0,0l58.7,0.2
			c0.8,0,1.5,0.7,1.5,1.5c0,0.8-0.7,1.5-1.5,1.5c0,0,0,0,0,0L3,3v57.4C3,61.2,2.3,61.9,1.5,61.9z"/>
	</g>
	<g>
		<path class="st0" d="M271.5,273c-0.4,0-0.8-0.1-1.1-0.4L205.8,208c-0.6-0.6-0.6-1.5,0-2.1s1.5-0.6,2.1,0l64.6,64.6
			c0.6,0.6,0.6,1.5,0,2.1C272.3,272.9,271.9,273,271.5,273z"/>
	</g>
	<g>
		<path class="st0" d="M271.5,273C271.5,273,271.5,273,271.5,273l-58.7-0.2c-0.8,0-1.5-0.7-1.5-1.5c0-0.8,0.7-1.5,1.5-1.5
			c0,0,0,0,0,0L270,270v-57.4c0-0.8,0.7-1.5,1.5-1.5s1.5,0.7,1.5,1.5v58.9c0,0.4-0.2,0.8-0.4,1.1C272.3,272.8,271.9,273,271.5,273z"
			/>
	</g>
	<g>
		<path class="st0" d="M206.9,67.6c-0.4,0-0.8-0.1-1.1-0.4c-0.6-0.6-0.6-1.5,0-2.1l64.6-64.6c0.6-0.6,1.5-0.6,2.1,0
			c0.6,0.6,0.6,1.5,0,2.1L208,67.2C207.7,67.5,207.3,67.6,206.9,67.6z"/>
	</g>
	<g>
		<path class="st0" d="M271.5,61.9c-0.8,0-1.5-0.7-1.5-1.5V3l-57.2,0.2c0,0,0,0,0,0c-0.8,0-1.5-0.7-1.5-1.5c0-0.8,0.7-1.5,1.5-1.5
			L271.5,0c0,0,0,0,0,0c0.4,0,0.8,0.2,1.1,0.4c0.3,0.3,0.4,0.7,0.4,1.1v58.9C273,61.2,272.3,61.9,271.5,61.9z"/>
	</g>
</g>
</svg>
