<?xml version="1.0" encoding="utf-8"?>
<!-- Generator: Adobe Illustrator 23.0.1, SVG Export Plug-In . SVG Version: 6.00 Build 0)  -->
<svg version="1.1" id="Layer_1" xmlns="http://www.w3.org/2000/svg" xmlns:xlink="http://www.w3.org/1999/xlink" x="0px" y="0px"
	 viewBox="0 0 273 273" style="enable-background:new 0 0 273 273;" xml:space="preserve">
<style type="text/css">
	.st0{fill:#C8C8C8;}
</style>
<title>mask star</title>
<g>
	<g>
		<path class="st0" d="M259.3,273.1H13.8c-7.6,0-13.8-6.2-13.8-13.8V13.8C0,6.2,6.2,0,13.8,0h245.5c7.6,0,13.8,6.2,13.8,13.8v245.5
			C273.1,266.9,266.9,273.1,259.3,273.1z M13.8,3C7.8,3,3,7.8,3,13.8v245.5c0,6,4.8,10.8,10.8,10.8h245.5c6,0,10.8-4.8,10.8-10.8
			V13.8c0-6-4.8-10.8-10.8-10.8H13.8z"/>
	</g>
	<g>
		<path class="st0" d="M202.4,236.1c-2.6,0-5.2-0.7-7.5-2L136.2,201l-58.7,33.1c-7.1,4.1-16.2,1.7-20.3-5.5c-2.3-4-2.7-8.9-0.9-13.2
			l24.1-55.5l-43.5-37.3c-5.8-5.1-6.4-13.9-1.4-19.8c2.7-3.2,6.8-4.9,11.2-4.8l50.1,0l25.9-53.2c3.8-7.4,12.9-10.3,20.2-6.6
			c3,1.7,5.2,4,6.7,6.7c0,0,0,0,0,0l25.9,53.2h50.2c3.7-0.2,7.2,1.2,10,3.7c2.7,2.5,4.3,6,4.5,9.7c0.1,4.2-1.6,8.4-4.7,11.1L192,160
			l24.1,55.5c1.6,3.6,1.6,7.7,0.1,11.4c-1.5,3.7-4.4,6.6-8.1,8.1C206.2,235.7,204.3,236.1,202.4,236.1z M136.2,197.8
			c0.3,0,0.5,0.1,0.7,0.2l59.4,33.5c3.3,1.9,7.2,2.1,10.6,0.7c2.9-1.2,5.2-3.5,6.4-6.5c1.2-2.9,1.2-6.2,0-9.1l-24.5-56.5
			c-0.3-0.6-0.1-1.3,0.4-1.7l44.3-38c2.4-2.1,3.8-5.4,3.7-8.7c-0.1-2.9-1.4-5.6-3.5-7.6c-2.2-2-5-3-7.9-2.9l-51.2,0
			c-0.6,0-1.1-0.3-1.3-0.8l-26.3-54c-1.2-2.2-3-4.1-5.4-5.5c-5.8-3-13.1-0.6-16.1,5.3l-26.3,54c-0.3,0.5-0.8,0.8-1.3,0.8H46.7
			c-3.5-0.1-6.7,1.3-8.9,3.8c-4,4.6-3.5,11.6,1,15.6l44.3,38c0.5,0.4,0.7,1.1,0.4,1.7l-24.5,56.5c-1.4,3.4-1.1,7.4,0.7,10.5
			c3.3,5.7,10.6,7.6,16.3,4.4l59.4-33.5C135.7,197.9,135.9,197.8,136.2,197.8z"/>
	</g>
</g>
</svg>
