<?xml version="1.0" encoding="utf-8"?>
<!-- Generator: Adobe Illustrator 23.0.1, SVG Export Plug-In . SVG Version: 6.00 Build 0)  -->
<svg version="1.1" id="Layer_1" xmlns="http://www.w3.org/2000/svg" xmlns:xlink="http://www.w3.org/1999/xlink" x="0px" y="0px"
	 viewBox="0 0 70 70" style="enable-background:new 0 0 70 70;" xml:space="preserve">
<style type="text/css">
	.st0{fill:#ED8223;}
	.st1{fill:#FFFFFF;}
</style>
<g>
	<g>
		<path class="st0" d="M70,35c0,19.3-15.8,35-35,35l0,0C15.8,70,0,54.3,0,35l0,0C0,15.8,15.8,0,35,0l0,0C54.3,0,70,15.8,70,35L70,35
			z"/>
	</g>
	<path class="st1" d="M12.1,37.3c0-4.9,3.5-8.9,8.6-8.9c3.1,0,5.9,1.8,7.1,4.7h0.1V19.6H29v26.2h-1.1v-4.5h-0.1
		c-1.2,2.7-3.8,4.6-7.2,4.6C15.9,45.9,12.1,42.5,12.1,37.3z M27.9,37.3c0-4.3-2.9-7.8-7.2-7.8c-4.1,0-7.4,3.1-7.4,7.8
		c0,4.1,3,7.4,7.4,7.4C24.7,44.7,27.9,41.8,27.9,37.3z"/>
	<path class="st1" d="M32.8,28.5h3l4.4,13h0.1l4-13h2.5l4.1,13h0.1l4.3-13h3l-6,17.3h-2.7l-4-12.7h0l-4,12.7h-2.6L32.8,28.5z"/>
</g>
</svg>
