<?xml version="1.0" encoding="utf-8"?>
<!-- Generator: Adobe Illustrator 23.0.3, SVG Export Plug-In . SVG Version: 6.00 Build 0)  -->
<svg version="1.1" id="Layer_1" xmlns="http://www.w3.org/2000/svg" xmlns:xlink="http://www.w3.org/1999/xlink" x="0px" y="0px"
	 viewBox="0 0 341 67.1" style="enable-background:new 0 0 341 67.1;" xml:space="preserve">
<style type="text/css">
	.st0{fill:#014764;}
</style>
<g>
	<path class="st0" d="M2.4,46.6l1.3-1.9c2.7,2.4,5.8,4.4,11.5,4.4c5.9,0,9.3-3.2,9.3-6.8c0-4.9-4.5-5.8-10.4-8
		C8.6,32.4,4,30.5,4,24.8c0-4.8,4.5-8.5,10.3-8.5c3.9,0,7.6,1,11.3,4.1l-1.4,1.9c-3.4-2.9-6.6-3.6-9.9-3.6c-4.4,0-7.8,2.7-7.8,6
		c0,4.3,3.9,5.8,8.2,7.4C22,34.7,27.1,35.9,27,42.4c-0.1,4.8-4.1,9.1-11.8,9.1C9.3,51.5,5.3,49.2,2.4,46.6z"/>
	<path class="st0" d="M34.7,36.5V16.6h2.4v19c0,9.3,4.2,13.6,10.9,13.6c7,0,12.6-6.1,12.6-15.5v-17H63v34.6h-2.4v-8.4l-0.1-0.1
		c-2.4,5.5-7.3,8.8-12.8,8.8C39.4,51.5,34.7,45.7,34.7,36.5z"/>
	<path class="st0" d="M74,16.6h2.4v8.1h0.1c2.1-5.1,6.3-8.4,12.1-8.4c0.7,0,1.4,0,2.1,0.1V19c-0.8-0.1-1.5-0.1-2.1-0.1
		c-7.4,0-12.2,6.1-12.2,15.1v17.2H74V16.6z"/>
	<path class="st0" d="M93.4,16.6h2.7l13.1,31.2h0.1l13-31.2h2.6l-14.5,34.6h-2.4L93.4,16.6z"/>
	<path class="st0" d="M160.3,34.2H131c0.1,8.7,6.1,14.9,14.2,14.9c5.3,0,9.3-2.1,12-5.6L159,45c-3,4-7.5,6.5-13.7,6.5
		c-9.8,0-16.7-7.4-16.7-17.5c0-10.1,7.1-17.6,16.5-17.6c9.1,0,15.3,7.1,15.3,16.6C160.4,33.4,160.4,34.1,160.3,34.2z M131.1,32H158
		c-0.6-8-5.5-13.4-12.9-13.4C137.7,18.6,131.9,24.2,131.1,32z"/>
	<path class="st0" d="M179.5,50.6l-15.5-34h2.8l14,31h0.1l13-31h2.7L176,65.3h-2.6L179.5,50.6z"/>
	<path class="st0" d="M200.4,16.5h5.9l8.8,26.1h0.1l8-26.1h5l8.1,26.1h0.1l8.7-26.1h5.9l-12,34.7h-5.4l-8-25.5h-0.1l-8,25.5h-5.3
		L200.4,16.5z"/>
	<path class="st0" d="M257.6,6c0-2.3,1.9-4.1,4.2-4.1S266,3.7,266,6s-1.9,4.1-4.2,4.1S257.6,8.3,257.6,6z M258.8,16.5h5.8v34.7h-5.8
		V16.5z"/>
	<path class="st0" d="M272.8,46.7l2.9-4.4c2.7,2.6,5.8,4.2,10.6,4.2c4.2,0,6.6-2.1,6.6-4.7c0-3.1-3.2-3.9-8.3-5.8
		c-5.6-2-10.4-4.3-10.4-10.6c0-5.3,4.8-9.3,11.4-9.3c4.2,0,8.1,1.1,12,4.3l-3,4.6c-3-2.8-6.2-3.7-9.2-3.7c-2.7,0-5.3,1.6-5.3,4.2
		c0,2.7,2.8,4.1,6.6,5.4c7.3,2.9,12.2,4.1,12.1,10.9c0,5.4-4.1,9.9-12.5,9.9C280.6,51.6,276.2,49.6,272.8,46.7z"/>
	<path class="st0" d="M337.8,35.6h-27.1c0.8,6.5,5.3,10.8,11.9,10.8c4.6,0,7.9-2,10.1-4.6l4.1,3.4c-3,3.9-7.3,6.5-14.3,6.5
		c-10.3,0-17.5-7.1-17.5-17.8C304.8,23.4,312,16,322,16c9.5,0,16,7.3,16,17.2C337.9,34.2,337.8,35.2,337.8,35.6z M310.8,30.9h21.3
		c-0.9-5.7-4.6-9.6-10.3-9.6C316.3,21.3,311.9,25,310.8,30.9z"/>
</g>
</svg>
