<?xml version="1.0" encoding="utf-8"?>
<!-- Generator: Adobe Illustrator 23.0.1, SVG Export Plug-In . SVG Version: 6.00 Build 0)  -->
<svg version="1.1" id="Layer_1" xmlns="http://www.w3.org/2000/svg" xmlns:xlink="http://www.w3.org/1999/xlink" x="0px" y="0px"
	 viewBox="0 0 261.3 273" style="enable-background:new 0 0 261.3 273;" xml:space="preserve">
<style type="text/css">
	.st0{fill:#C8C8C8;}
</style>
<title>read glasses 1</title>
<g>
	<g>
		<path class="st0" d="M66.1,97c-26.7,0-48.5-21.8-48.5-48.5S39.4,0,66.1,0s48.5,21.8,48.5,48.5S92.8,97,66.1,97z M66.1,3
			C41,3,20.6,23.4,20.6,48.5S41,94,66.1,94s45.5-20.4,45.5-45.5S91.2,3,66.1,3z"/>
	</g>
	<g>
		<path class="st0" d="M195.2,97c-26.7,0-48.5-21.8-48.5-48.5S168.5,0,195.2,0s48.5,21.8,48.5,48.5S221.9,97,195.2,97z M195.2,3
			c-25.1,0-45.5,20.4-45.5,45.5S170.1,94,195.2,94s45.5-20.4,45.5-45.5S220.3,3,195.2,3z"/>
	</g>
	<g>
		<path class="st0" d="M148.2,49.9c-0.8,0-1.5-0.7-1.5-1.5c0-8.9-7.2-16.1-16.1-16.1s-16.1,7.2-16.1,16.1c0,0.8-0.7,1.5-1.5,1.5
			s-1.5-0.7-1.5-1.5c0-10.5,8.6-19.1,19.1-19.1s19.1,8.6,19.1,19.1C149.7,49.2,149,49.9,148.2,49.9z"/>
	</g>
	<g>
		<path class="st0" d="M19.1,50H1.5C0.7,50,0,49.3,0,48.5S0.7,47,1.5,47h17.6c0.8,0,1.5,0.7,1.5,1.5S19.9,50,19.1,50z"/>
	</g>
	<g>
		<path class="st0" d="M259.8,50h-17.6c-0.8,0-1.5-0.7-1.5-1.5s0.7-1.5,1.5-1.5h17.6c0.8,0,1.5,0.7,1.5,1.5S260.6,50,259.8,50z"/>
	</g>
	<g>
		<path class="st0" d="M130.6,273h-0.1c-0.3,0-0.5-0.1-0.7-0.2L44.3,245c-5.5-1.8-9.1-6.9-9.1-12.6v-92.7c0-7.3,5.9-13.2,13.2-13.2
			c1.4,0,2.9,0.2,4.1,0.7l78.5,25.5c0.6,0.2,1,0.8,1,1.4V271c0.1,0.2,0.1,0.5,0.1,0.8C132,272.5,131.3,273,130.6,273z M48.4,129.5
			c-5.6,0-10.2,4.6-10.2,10.2v92.7c0,4.4,2.8,8.4,7.1,9.8l83.7,27.2V155.2L51.5,130C50.6,129.7,49.5,129.5,48.4,129.5z"/>
	</g>
	<g>
		<path class="st0" d="M130.6,272.9c-0.6,0-1.2-0.4-1.4-1c-0.3-0.8,0.2-1.6,1-1.9l85.8-27.8c4.2-1.4,7.1-5.3,7.1-9.8v-92.7
			c0-1-0.2-2.1-0.5-3.1c-1.8-5.3-7.5-8.3-12.9-6.5l-78.5,25.5c-0.8,0.3-1.6-0.2-1.9-1c-0.3-0.8,0.2-1.6,1-1.9l78.5-25.5
			c6.9-2.2,14.4,1.6,16.7,8.5c0.4,1.3,0.7,2.7,0.7,4.1v92.7c0,5.7-3.7,10.8-9.1,12.6l-85.8,27.8
			C130.9,272.9,130.8,272.9,130.6,272.9z"/>
	</g>
	<g>
		<path class="st0" d="M171.8,204.7c-7.3,0-13.2-5.9-13.2-13.2v-4.9c0-5.9,3.9-11.2,9.6-12.7l17.6-5c1.2-0.4,2.4-0.6,3.6-0.6
			c7.3,0,13.2,5.9,13.2,13.2v4.9c0,5.9-3.9,11.2-9.6,12.7l-17.6,5c0,0,0,0,0,0c-1.2,0.3-2.3,0.4-3.3,0.5l-0.2,0
			C171.9,204.7,171.8,204.7,171.8,204.7z M175,202.7L175,202.7L175,202.7z M189.4,171.3c-0.9,0-1.8,0.1-2.8,0.4l-17.6,5
			c-4.4,1.2-7.4,5.3-7.4,9.9v4.9c0,5.6,4.5,10.2,10.1,10.2l0.1,0c0.9-0.1,1.9-0.2,2.8-0.4l17.6-5c4.4-1.2,7.4-5.3,7.4-9.9v-4.9
			C199.6,175.9,195,171.3,189.4,171.3z"/>
	</g>
</g>
</svg>
