<?xml version="1.0" encoding="utf-8"?>
<!-- Generator: Adobe Illustrator 23.0.1, SVG Export Plug-In . SVG Version: 6.00 Build 0)  -->
<svg version="1.1" id="Layer_1" xmlns="http://www.w3.org/2000/svg" xmlns:xlink="http://www.w3.org/1999/xlink" x="0px" y="0px"
	 viewBox="0 0 249.6 273" style="enable-background:new 0 0 249.6 273;" xml:space="preserve">
<style type="text/css">
	.st0{fill:#C8C8C8;}
</style>
<title>vintage tv 1</title>
<g>
	<g>
		<path class="st0" d="M236.3,249.4H13.2c-7.3,0-13.2-5.9-13.2-13.2V71.9c0-7.3,5.9-13.3,13.2-13.3h223.1c7.3,0,13.2,5.9,13.2,13.2
			v164.4C249.5,243.5,243.6,249.4,236.3,249.4z M13.2,61.6C7.6,61.6,3,66.2,3,71.9v164.3c0,5.6,4.6,10.2,10.2,10.2h223.1
			c5.6,0,10.2-4.6,10.2-10.2V71.8c0-5.6-4.6-10.2-10.2-10.2H13.2z"/>
	</g>
	<g>
		<path class="st0" d="M25,273c-0.5,0-1-0.2-1.2-0.7c-0.5-0.7-0.3-1.6,0.4-2.1l35.2-23.5c0.7-0.5,1.6-0.3,2.1,0.4
			c0.5,0.7,0.3,1.6-0.4,2.1l-35.2,23.5C25.6,272.9,25.3,273,25,273z"/>
	</g>
	<g>
		<path class="st0" d="M224.6,273c-0.3,0-0.6-0.1-0.8-0.3l-35.2-23.5c-0.7-0.5-0.9-1.4-0.4-2.1c0.5-0.7,1.4-0.9,2.1-0.4l35.2,23.5
			c0.7,0.5,0.9,1.4,0.4,2.1C225.6,272.8,225.1,273,224.6,273z"/>
	</g>
	<g>
		<path class="st0" d="M124.9,214.4c-28-0.1-55.9-1.9-83.1-5.2c-3.8-0.5-6.5-3.7-6.4-7.4l0-95.3c0-3.7,2.7-6.9,6.4-7.4
			c28-3.4,56-5.1,83.1-5.2C152,94,180,95.8,208,99.1c3.8,0.5,6.5,3.7,6.4,7.4l0,95.4c0,3.7-2.8,6.9-6.4,7.4
			C180.6,212.6,152.6,214.3,124.9,214.4z M124.9,96.9c-27,0.1-54.8,1.8-82.7,5.2c-2.1,0.3-3.8,2.2-3.8,4.4v95.3
			c-0.1,2.3,1.5,4.1,3.8,4.4c27,3.3,54.9,5.1,82.7,5.2c27.6-0.1,55.4-1.8,82.7-5.1c2.1-0.3,3.8-2.2,3.8-4.4v-95.4
			c0.1-2.3-1.5-4.1-3.8-4.4C179.7,98.7,151.9,97,124.9,96.9z"/>
	</g>
	<g>
		<path class="st0" d="M177.6,61.6L177.6,61.6c-0.5,0-1-0.3-1.3-0.7L141.1,2.3c-0.4-0.7-0.2-1.6,0.5-2.1c0.7-0.4,1.6-0.2,2.1,0.5
			l33.9,56.5l33.9-56.5c0.4-0.7,1.3-0.9,2.1-0.5c0.7,0.4,0.9,1.3,0.5,2.1l-35.2,58.6C178.6,61.3,178.1,61.6,177.6,61.6z"/>
	</g>
</g>
</svg>
