<?xml version="1.0" encoding="utf-8"?>
<!-- Generator: Adobe Illustrator 23.0.1, SVG Export Plug-In . SVG Version: 6.00 Build 0)  -->
<svg version="1.1" id="Layer_1" xmlns="http://www.w3.org/2000/svg" xmlns:xlink="http://www.w3.org/1999/xlink" x="0px" y="0px"
	 viewBox="0 0 388.2 52.3" style="enable-background:new 0 0 388.2 52.3;" xml:space="preserve">
<style type="text/css">
	.st0{fill:#014764;}
</style>
<g>
	<path class="st0" d="M0,35.1c0-9.8,6.9-17.7,17-17.7c6.2,0,11.6,3.5,14.2,9.3h0.1V0h2.3v51.9h-2.3V43h-0.1
		c-2.3,5.4-7.6,9.2-14.2,9.2C7.6,52.1,0,45.3,0,35.1z M31.4,35.1c0-8.5-5.8-15.4-14.2-15.4C9,19.7,2.5,25.9,2.5,35.1
		c0,8.2,5.8,14.7,14.7,14.7C24.9,49.8,31.4,44,31.4,35.1z"/>
	<path class="st0" d="M73.9,35.1h-29c0.1,8.6,6,14.7,14,14.7c5.3,0,9.2-2.1,11.8-5.5l1.8,1.4c-3,3.9-7.4,6.4-13.5,6.4
		c-9.7,0-16.5-7.3-16.5-17.3s7-17.4,16.3-17.4c8.9,0,15.1,7,15.1,16.4C74,34.3,74,34.9,73.9,35.1z M45,32.9h26.6
		c-0.6-7.9-5.4-13.2-12.8-13.2C51.6,19.7,45.8,25.2,45,32.9z"/>
	<path class="st0" d="M80.3,34.8c0-10.1,6.7-17.4,16.5-17.4c4.8,0,9.7,1.9,13,5.6l-1.8,1.6c-2.4-2.9-6.4-4.9-11.1-4.9
		c-8.5,0-14.2,6.3-14.2,15.1c0,8.9,5.7,15,14.1,15c4.4,0,8.8-1.8,11.4-4.8l1.6,1.7c-2.9,3.1-7.6,5.4-13.1,5.4
		C86.9,52.1,80.3,45,80.3,34.8z"/>
	<path class="st0" d="M117.4,7.3c0-1.4,1.1-2.3,2.4-2.3c1.4,0,2.4,0.9,2.4,2.3c0,1.3-1,2.4-2.4,2.4C118.4,9.7,117.4,8.6,117.4,7.3z
		 M118.4,17.7h2.4v34.2h-2.4V17.7z"/>
	<path class="st0" d="M129.3,47.3l1.3-1.8c2.7,2.3,5.8,4.4,11.3,4.4c5.8,0,9.2-3.2,9.2-6.8c0-4.9-4.4-5.8-10.3-7.9
		c-5.5-2-10-3.9-10-9.4c0-4.8,4.4-8.4,10.1-8.4c3.8,0,7.5,1,11.2,4.1l-1.4,1.8c-3.3-2.9-6.5-3.6-9.8-3.6c-4.3,0-7.7,2.7-7.7,5.9
		c0,4.2,3.8,5.7,8.1,7.3c7.2,2.5,12.3,3.8,12.2,10.2c-0.1,4.8-4.1,8.9-11.7,8.9C136.1,52.1,132.1,49.9,129.3,47.3z"/>
	<path class="st0" d="M161.3,7.3c0-1.4,1.1-2.3,2.4-2.3c1.4,0,2.4,0.9,2.4,2.3c0,1.3-1,2.4-2.4,2.4C162.4,9.7,161.3,8.6,161.3,7.3z
		 M162.4,17.7h2.4v34.2h-2.4V17.7z"/>
	<path class="st0" d="M174.1,34.8c0-9.5,6.9-17.4,17.2-17.4c9.5,0,17.2,7,17.2,17.4c0,10.3-7.7,17.3-17.2,17.3
		C181,52.1,174.1,44.3,174.1,34.8z M206,34.8c0-9-6.6-15.1-14.7-15.1c-8.9,0-14.8,6.9-14.8,15.1s5.9,15,14.8,15
		C199.6,49.8,206,43.7,206,34.8z"/>
	<path class="st0" d="M217.5,17.7h2.4v8.5h0.1c2.5-5.5,7.5-8.8,13.9-8.8c7.2,0,11.8,4.9,11.8,13.9v20.5h-2.3V32.3
		c0-9.2-4.4-12.6-9.9-12.6c-8.2,0-13.6,6.1-13.6,15.3v16.9h-2.4V17.7z"/>
	<path class="st0" d="M252.4,17.5h5.8l8.7,25.8h0.1l7.9-25.8h4.9l8,25.8h0.1l8.6-25.8h5.8l-11.8,34.3h-5.4l-7.9-25.2h-0.1l-7.9,25.2
		h-5.2L252.4,17.5z"/>
	<path class="st0" d="M308.8,7.2c0-2.3,1.8-4.1,4.2-4.1c2.3,0,4.2,1.8,4.2,4.1c0,2.3-1.8,4.1-4.2,4.1
		C310.6,11.3,308.8,9.4,308.8,7.2z M310.1,17.5h5.7v34.3h-5.7V17.5z"/>
	<path class="st0" d="M323.9,47.4l2.9-4.4c2.7,2.6,5.7,4.2,10.5,4.2c4.2,0,6.6-2,6.6-4.7c0-3-3.2-3.9-8.2-5.7
		c-5.6-2-10.3-4.2-10.3-10.5c0-5.3,4.8-9.2,11.3-9.2c4.2,0,8,1.1,11.8,4.2l-3,4.5c-3-2.7-6.1-3.7-9.1-3.7c-2.7,0-5.3,1.5-5.3,4.2
		c0,2.7,2.7,4,6.5,5.4c7.3,2.8,12,4.1,12,10.8c0,5.4-4.1,9.8-12.3,9.8C331.6,52.3,327.2,50.3,323.9,47.4z"/>
	<path class="st0" d="M388.1,36.4h-26.8c0.8,6.4,5.3,10.6,11.8,10.6c4.6,0,7.8-2,9.9-4.6l4,3.4c-3,3.8-7.3,6.4-14.2,6.4
		c-10.1,0-17.3-7-17.3-17.5c0-10.4,7.1-17.6,16.9-17.6c9.4,0,15.8,7.2,15.8,17C388.2,35,388.1,36,388.1,36.4z M361.4,31.8h21.1
		c-0.8-5.6-4.5-9.4-10.1-9.4C366.9,22.3,362.5,25.9,361.4,31.8z"/>
</g>
</svg>
